<?xml version="1.0" encoding="UTF-8"?>
<svg id="Layer_1" data-name="Layer 1" xmlns="http://www.w3.org/2000/svg" viewBox="0 0 87.44 25">
  <defs>
    <style>
      .cls-1, .cls-2 {
        fill: #fff;
      }

      .cls-3 {
        fill: #7b4134;
      }

      .cls-2 {
        fill-rule: evenodd;
      }
    </style>
  </defs>
  <rect class="cls-3" width="87.44" height="25"/>
  <g>
    <path class="cls-1" d="m31.68,13.81h-1.86v2.94h-1.76v-7.5h4.24c.61,0,1.07.07,1.4.19.33.12.6.29.83.52.19.19.34.4.45.63.11.23.16.49.16.79,0,.36-.1.71-.31,1.05s-.55.59-1.03.73c.4.14.68.34.85.59.17.26.25.65.25,1.17v.5c0,.34.02.58.05.7.05.19.16.34.33.43v.19h-1.99c-.05-.17-.09-.3-.12-.4-.05-.21-.07-.43-.08-.65v-.7c-.02-.48-.12-.8-.31-.96-.19-.16-.56-.24-1.09-.24Zm1.1-1.36c.36-.14.54-.42.54-.84,0-.45-.17-.76-.52-.92-.2-.09-.49-.13-.88-.13h-2.1v2.02h2.04c.41,0,.71-.04.91-.12Z"/>
    <path class="cls-1" d="m43.21,13.47h-4.2v1.93h4.78v1.35h-6.54v-7.5h6.33v1.33h-4.57v1.59h4.2v1.3Z"/>
    <path class="cls-1" d="m48.85,15.67c.43,0,.77-.04,1.04-.12.5-.16.76-.45.76-.87,0-.25-.12-.44-.38-.58-.25-.13-.64-.25-1.18-.35l-.91-.18c-.9-.18-1.52-.37-1.86-.57-.58-.35-.87-.89-.87-1.62,0-.67.28-1.23.84-1.67s1.39-.67,2.48-.67c.91,0,1.69.21,2.33.63s.98,1.03,1.01,1.82h-1.73c-.03-.45-.26-.77-.68-.96-.28-.13-.63-.19-1.05-.19-.46,0-.84.08-1.11.24-.28.16-.42.39-.42.68,0,.27.14.47.41.6.18.09.55.19,1.12.31l1.49.31c.65.14,1.14.32,1.48.54.52.35.77.86.77,1.53s-.3,1.25-.91,1.71c-.6.45-1.46.68-2.56.68s-2.01-.22-2.65-.67c-.64-.45-.97-1.06-.97-1.84h1.72c.05.34.16.6.32.77.29.31.79.46,1.51.46Z"/>
    <path class="cls-1" d="m59.35,13.86v-4.61h1.83v4.61c0,.8-.14,1.42-.43,1.86-.53.81-1.54,1.22-3.04,1.22s-2.51-.41-3.05-1.22c-.29-.44-.43-1.07-.43-1.86v-4.61h1.83v4.61c0,.52.07.89.21,1.13.22.42.7.63,1.43.63s1.21-.21,1.42-.63c.14-.24.21-.61.21-1.13Z"/>
    <path class="cls-1" d="m65.07,16.75h-1.68v-7.5h2.62l1.57,5.9,1.56-5.9h2.6v7.5h-1.68v-5.07c0-.15,0-.35,0-.61s0-.47,0-.61l-1.63,6.29h-1.75l-1.62-6.29c0,.14,0,.35,0,.61s0,.47,0,.61v5.07Z"/>
    <path class="cls-1" d="m79.94,13.47h-4.2v1.93h4.78v1.35h-6.54v-7.5h6.33v1.33h-4.57v1.59h4.2v1.3Z"/>
  </g>
  <path class="cls-2" d="m9.81,4.95h4.58v1.53h-4.58s0-1.53,0-1.53Zm-1.18,10.33c-.1,0-.18-.08-.18-.18,0-.11.08-.2.18-.2h6.95c.1,0,.18.08.18.2,0,.1-.08.18-.18.18h-6.95Zm0,3.07c-.1,0-.18-.08-.18-.2,0-.1.08-.18.18-.18h6.95c.1,0,.18.08.18.18,0,.11-.08.2-.18.2h-6.95Zm2.24-7.89c.62.28,1.03.9,1.03,1.57,0,.11-.08.2-.2.2h-3.07c-.1,0-.18-.08-.18-.2,0-.67.41-1.29,1.03-1.57-.28-.21-.45-.55-.45-.91,0-.63.51-1.15,1.14-1.15s1.15.52,1.15,1.15c0,.37-.17.7-.45.91Zm-.7.24c-.66,0-1.22.49-1.32,1.14h2.66c-.1-.65-.67-1.14-1.34-1.14Zm0-1.91c-.42,0-.76.34-.76.76s.34.77.76.77.77-.35.77-.77-.35-.76-.77-.76Zm2.73,1.72c-.1,0-.18-.08-.18-.18,0-.11.08-.2.18-.2h2.69c.1,0,.18.08.18.2,0,.1-.08.18-.18.18h-2.69Zm0,1.53c-.1,0-.18-.08-.18-.2,0-.1.08-.18.18-.18h2.69c.1,0,.18.08.18.18,0,.11-.08.2-.18.2h-2.69Zm0-3.07c-.1,0-.18-.08-.18-.18,0-.11.08-.2.18-.2h2.69c.1,0,.18.08.18.2,0,.1-.08.18-.18.18h-2.69Zm-4.26,4.78c-.1,0-.18-.08-.18-.18,0-.11.08-.2.18-.2h6.95c.1,0,.18.08.18.2,0,.1-.08.18-.18.18h-6.95Zm0,3.07c-.1,0-.18-.08-.18-.2,0-.1.08-.18.18-.18h6.95c.1,0,.18.08.18.18,0,.11-.08.2-.18.2h-6.95Zm8.83-11.11v14.14c0,.11-.08.2-.18.2H6.94c-.11,0-.2-.08-.2-.2V5.71c0-.1.08-.18.2-.18h2.49v1.34h5.36v-1.34h2.49c.1,0,.18.08.18.18Z"/>
</svg>