<?xml version="1.0" encoding="UTF-8"?>
<svg id="Layer_1" data-name="Layer 1" xmlns="http://www.w3.org/2000/svg" viewBox="0 0 80.6 25">
  <defs>
    <style>
      .cls-1 {
        fill: #fff;
      }

      .cls-2 {
        fill: #7b4134;
      }
    </style>
  </defs>
  <rect class="cls-2" width="80.6" height="25"/>
  <g>
    <path class="cls-1" d="m39.52,16.47c-.48.25-1.06.38-1.76.38-1.14,0-2.08-.34-2.81-1.03-.76-.69-1.14-1.64-1.14-2.84s.38-2.19,1.15-2.92c.77-.73,1.79-1.1,3.05-1.1,1.1,0,1.98.24,2.65.73s1.05,1.09,1.15,1.81h-1.78c-.14-.51-.47-.87-1-1.07-.3-.11-.63-.17-.99-.17-.7,0-1.27.23-1.71.68-.45.46-.67,1.14-.67,2.06s.24,1.58.73,1.96,1.04.58,1.65.58,1.1-.15,1.49-.46.62-.7.71-1.19h-2v-1.25h3.6v4.02h-1.2l-.18-.94c-.35.36-.66.61-.94.75Z"/>
    <path class="cls-1" d="m45.73,16.65h-1.68v-7.5h2.62l1.57,5.9,1.56-5.9h2.6v7.5h-1.68v-5.07c0-.15,0-.35,0-.61s0-.47,0-.61l-1.63,6.29h-1.75l-1.62-6.29c0,.14,0,.35,0,.61s0,.47,0,.61v5.07Z"/>
    <path class="cls-1" d="m59.65,15.11h-3.18l-.6,1.54h-1.89l3.08-7.5h2.04l3.06,7.5h-1.96l-.56-1.54Zm-.5-1.29l-1.08-2.95-1.11,2.95h2.19Z"/>
    <path class="cls-1" d="m63.63,9.15h1.79v7.5h-1.79v-7.5Z"/>
    <path class="cls-1" d="m67.62,9.15h1.8v6.15h4.28v1.35h-6.08v-7.5Z"/>
  </g>
  <path class="cls-1" d="m22.79,8.52v9.24h0c0,.6-.49,1.09-1.09,1.09h-2.54v-6.16l-4.35,3.26-4.35-3.26v6.16h-2.54c-.6,0-1.09-.49-1.09-1.09h0v-9.24h0c0-.9.73-1.63,1.63-1.63.37,0,.71.12.98.33h0s5.36,4.02,5.36,4.02l5.36-4.02c.27-.2.61-.33.98-.33.9,0,1.63.73,1.63,1.63h0Z"/>
</svg>