<?xml version="1.0" encoding="UTF-8"?>
<svg id="Layer_1" data-name="Layer 1" xmlns="http://www.w3.org/2000/svg" viewBox="0 0 100 25">
  <defs>
    <style>
      .cls-1 {
        fill: #fff;
      }

      .cls-2 {
        fill: #9a8a60;
      }
    </style>
  </defs>
  <rect class="cls-2" width="100" height="25"/>
  <g>
    <path class="cls-1" d="m33.65,9.23h1.8v6.15h4.28v1.35h-6.08v-7.5Z"/>
    <path class="cls-1" d="m41.47,9.23h1.79v7.5h-1.79v-7.5Z"/>
    <path class="cls-1" d="m52.57,16.73h-1.8l-3.53-5.33v5.33h-1.68v-7.5h1.89l3.44,5.24v-5.24h1.68v7.5Z"/>
    <path class="cls-1" d="m62.54,16.73h-2.32l-2.67-3.28-.86.77v2.51h-1.78v-7.5h1.78v3.09l3.33-3.09h2.33l-3.54,3.09,3.72,4.41Z"/>
    <path class="cls-1" d="m70.2,13.45h-4.2v1.93h4.78v1.35h-6.54v-7.5h6.33v1.33h-4.57v1.59h4.2v1.3Z"/>
    <path class="cls-1" d="m76.55,16.73h-3.72v-7.5h3.72c.54,0,.98.06,1.34.16.61.17,1.1.49,1.47.95.3.37.51.78.62,1.21.11.43.16.85.16,1.24,0,1-.23,1.84-.69,2.53-.62.93-1.59,1.4-2.89,1.4Zm1.34-5.59c-.28-.41-.83-.61-1.65-.61h-1.66v4.9h1.66c.85,0,1.45-.36,1.78-1.09.18-.4.28-.88.28-1.43,0-.76-.14-1.35-.41-1.76Z"/>
    <path class="cls-1" d="m81.99,9.23h1.79v7.5h-1.79v-7.5Z"/>
    <path class="cls-1" d="m93.08,16.73h-1.8l-3.53-5.33v5.33h-1.68v-7.5h1.89l3.44,5.24v-5.24h1.68v7.5Z"/>
  </g>
  <path class="cls-1" d="m21.54,4.89h-13.46c-.69,0-1.25.56-1.25,1.25v13.46c0,.69.56,1.25,1.25,1.25h13.46c.69,0,1.25-.56,1.25-1.25V6.14c0-.69-.56-1.25-1.25-1.25Zm-8.96,11.31h-1.55v-4.97h1.55v4.97Zm-.82-5.6h-.01c-.56,0-.93-.38-.93-.86s.38-.86.95-.86.93.37.94.86c0,.48-.36.86-.95.86Zm7.04,5.6h-1.76v-2.57c0-.67-.27-1.13-.88-1.13-.46,0-.72.31-.84.61-.04.11-.04.26-.04.41v2.69h-1.75s.02-4.56,0-4.97h1.75v.78c.1-.34.66-.83,1.55-.83,1.11,0,1.97.72,1.97,2.26v2.77Z"/>
</svg>